<?xml version="1.0" encoding="iso-8859-1"?>
<!-- Uploaded to: SVG Repo, www.svgrepo.com, Generator: SVG Repo Mixer Tools -->
<svg height="800px" width="800px" version="1.1" id="Capa_1" xmlns="http://www.w3.org/2000/svg" xmlns:xlink="http://www.w3.org/1999/xlink" 
	 viewBox="0 0 62.255 62.255" xml:space="preserve">
<g>
	<path style="fill:#010002;" d="M38.763,52.192v-0.044c0.051-0.025,0.083-0.077,0.083-0.135v-2.758c0-0.09-0.07-0.161-0.154-0.161
		h-1.529l-2.51-8.79c0.66-0.528,1.091-1.334,1.091-2.248c0-1.222-0.76-2.263-1.832-2.686c-0.963-6.688-1.443-17.551-1.637-23.055
		c0.515-0.502,0.852-1.329,0.852-2.268v-3.45c0-1.278-0.627-2.344-1.475-2.666V0.399C31.655,0.18,31.41,0,31.115,0
		c-0.303,0-0.546,0.18-0.546,0.399v3.552c-0.829,0.34-1.436,1.392-1.436,2.652v3.451c0,0.936,0.337,1.761,0.848,2.263
		c-0.193,5.498-0.671,16.341-1.628,23.029c-1.121,0.398-1.929,1.458-1.929,2.715c0,0.945,0.462,1.777,1.163,2.305l-2.489,8.732
		h-1.511c-0.09,0-0.161,0.07-0.161,0.162v2.757c0,0.052,0.025,0.098,0.064,0.122v0.056l-5.608,10.06h5.605
		c0,0,0.573-7.387,7.638-7.471c7.072,0.084,7.644,7.471,7.644,7.471h5.605L38.763,52.192z"/>
</g>
</svg>