<svg width="422" height="427" xmlns="http://www.w3.org/2000/svg" xmlns:xlink="http://www.w3.org/1999/xlink" xml:space="preserve" overflow="hidden"><g transform="translate(-2433 -1562)"><g><path d="M2848.29 1811.33C2830.11 1820.06 2815.52 1834.24 2802.43 1849.21 2788.97 1864.61 2776.52 1880.81 2761.97 1895.25 2731.62 1925.37 2694.1 1949.4 2651.31 1957.08 2628.29 1961.21 2604.39 1960.36 2582.02 1953.54 2583.57 1952.33 2585.11 1951.1 2586.64 1949.85 2607.68 1932.6 2627.68 1913.95 2646.77 1894.63 2656.45 1884.84 2665.93 1874.8 2674.61 1864.13 2681.11 1856.14 2687.57 1847.77 2690.92 1837.95 2697.31 1819.17 2694.57 1798.14 2687.52 1779.95 2681.14 1763.49 2670.32 1748.95 2656.25 1738.13 2653.73 1736.19 2651.09 1734.43 2648.4 1732.74 2653.72 1727.63 2659.03 1722.5 2664.36 1717.4 2688.86 1693.98 2713.47 1670.67 2738.2 1647.49 2762.8 1624.43 2787.52 1601.48 2812.35 1578.65 2815.42 1575.82 2818.5 1573 2821.57 1570.18 2824.5 1567.49 2820.12 1563.16 2817.2 1565.84 2792.34 1588.64 2767.59 1611.56 2742.96 1634.6 2718.33 1657.64 2693.81 1680.79 2669.4 1704.07 2645 1727.34 2620.71 1750.73 2596.54 1774.25 2572.24 1797.87 2548.07 1821.62 2524.01 1845.48 2500.07 1869.22 2476.25 1893.08 2452.55 1917.06 2449.61 1920.03 2446.68 1922.99 2443.75 1925.96 2443.56 1926.16 2443.41 1926.36 2443.28 1926.57 2434.14 1937.73 2435.62 1955.78 2443.59 1967.18 2453.75 1981.71 2473.91 1985.46 2490.54 1985.95 2509.17 1986.49 2527.73 1982.95 2544.89 1975.79 2556.04 1971.14 2566.32 1965.04 2576.01 1958.03 2618.77 1972.72 2666.34 1965.18 2705.81 1944.69 2724.83 1934.82 2742.24 1922.02 2757.97 1907.59 2773.53 1893.31 2786.83 1877.15 2800.39 1861.05 2814.96 1843.73 2830.62 1826.61 2851.42 1816.62 2855 1814.9 2851.87 1809.61 2848.29 1811.33Z" fill="#000000" fill-rule="evenodd" fill-opacity="1"/></g></g></svg>