<?xml version="1.0" standalone="no"?>
<!DOCTYPE svg PUBLIC "-//W3C//DTD SVG 20010904//EN"
 "http://www.w3.org/TR/2001/REC-SVG-20010904/DTD/svg10.dtd">
<svg version="1.0" xmlns="http://www.w3.org/2000/svg"
 width="5455.000000pt" height="8000.000000pt" viewBox="0 0 5455.000000 8000.000000"
 preserveAspectRatio="xMidYMid meet">

<g transform="translate(0.000000,8000.000000) scale(0.100000,-0.100000)"
fill="#000000" stroke="none">
<path d="M8573 79140 c-187 -49 -375 -186 -492 -359 -86 -127 -167 -333 -187
-478 -26 -195 -24 -340 11 -572 62 -418 72 -1055 20 -1305 -43 -207 -111 -344
-229 -461 -100 -100 -171 -138 -361 -195 -824 -246 -1212 -451 -1590 -841
-196 -202 -247 -274 -577 -814 -707 -1156 -1032 -1622 -1388 -1989 -200 -206
-306 -282 -560 -400 -535 -249 -1089 -606 -1366 -881 -166 -165 -226 -264
-274 -456 -17 -68 -80 -270 -141 -449 -201 -593 -247 -791 -237 -1023 9 -196
68 -320 232 -482 114 -113 215 -179 354 -230 187 -70 316 -69 477 6 192 88
319 118 800 185 675 94 728 119 1061 505 80 93 168 188 197 212 184 155 434
265 746 327 347 69 583 82 1426 78 663 -3 684 -2 820 20 270 43 365 77 734
261 141 71 309 149 373 175 498 199 863 94 1147 -328 516 -765 2479 -5862
3297 -8556 171 -566 298 -971 401 -1285 841 -2557 1957 -5080 3306 -7475 640
-1136 1716 -2907 3567 -5870 1161 -1858 1311 -2104 1421 -2335 73 -155 125
-299 188 -521 68 -244 89 -354 100 -535 9 -144 6 -1286 -3 -1374 -3 -22 -7
-109 -11 -194 -7 -190 -30 -447 -51 -566 -22 -129 -60 -248 -196 -610 -284
-755 -397 -1100 -488 -1494 -206 -884 -183 -1588 71 -2198 56 -133 92 -204
234 -453 157 -275 147 -254 209 -433 275 -782 646 -1561 1029 -2155 60 -94
112 -211 401 -902 359 -857 1221 -3014 1289 -3225 35 -106 153 -522 216 -760
198 -745 338 -1485 391 -2060 17 -193 29 -321 40 -460 6 -71 15 -182 20 -245
50 -602 105 -1390 150 -2150 49 -847 71 -1696 59 -2255 -12 -503 -40 -764
-108 -991 -38 -128 -59 -238 -83 -449 -20 -168 -16 -1108 5 -1435 28 -424 37
-557 52 -735 53 -623 62 -794 75 -1445 19 -941 -15 -1914 -96 -2724 -35 -355
-204 -1562 -335 -2396 -5 -36 -42 -272 -80 -525 -83 -543 -72 -471 -149 -965
-122 -785 -344 -2216 -360 -2328 -5 -37 -19 -128 -30 -202 -55 -360 -85 -589
-100 -750 -14 -152 -60 -288 -232 -683 -157 -362 -231 -550 -265 -671 -22 -79
-25 -113 -27 -266 -2 -153 -6 -188 -28 -275 -50 -191 -126 -378 -237 -591
-106 -202 -139 -245 -492 -645 -386 -439 -653 -792 -815 -1081 -71 -126 -266
-533 -327 -683 -89 -219 -122 -347 -115 -449 3 -58 8 -71 34 -97 20 -20 44
-32 70 -36 45 -6 329 34 552 77 217 43 353 59 547 66 294 11 480 -16 767 -110
271 -90 647 -176 878 -201 36 -4 74 -9 85 -12 11 -3 117 -7 235 -10 304 -7
384 11 428 97 43 87 23 207 -88 515 -40 110 -91 259 -114 330 -24 72 -73 196
-109 278 -131 288 -159 381 -159 532 -1 105 19 190 67 284 51 102 115 183 275
346 315 322 463 518 609 804 204 400 348 942 442 1660 20 157 70 549 79 626 5
44 23 195 39 335 17 140 42 356 56 480 36 318 60 535 95 840 17 146 44 384 60
530 16 146 43 384 60 530 17 146 37 326 45 400 8 74 19 171 25 215 5 44 19
160 30 258 11 97 29 255 40 350 10 94 31 273 45 397 14 124 30 262 35 308 24
196 31 256 50 417 74 627 183 1501 241 1935 5 41 16 125 24 185 30 237 118
834 161 1090 61 363 94 517 160 746 148 518 294 1218 463 2219 220 1314 346
2281 401 3085 6 83 12 182 15 220 61 828 154 3071 155 3715 0 234 24 574 60
880 18 144 80 563 89 595 7 26 25 -21 134 -350 646 -1951 1136 -3881 1342
-5295 14 -96 34 -236 45 -310 19 -127 26 -171 50 -322 5 -35 19 -124 31 -198
231 -1480 433 -2346 676 -2895 101 -228 206 -395 368 -585 383 -449 1189
-1648 2163 -3220 462 -746 706 -1162 1817 -3095 1204 -2095 1473 -2560 1650
-2850 323 -529 597 -1063 772 -1505 233 -591 540 -966 1048 -1281 l102 -63
116 -175 c226 -344 399 -655 467 -846 40 -111 47 -217 31 -455 -24 -351 -67
-660 -143 -1020 -35 -168 -43 -354 -19 -450 45 -178 164 -286 337 -305 51 -6
335 13 475 31 666 85 1194 226 1423 380 82 55 155 133 251 269 279 394 467
771 556 1115 99 380 38 628 -178 728 -68 31 -142 46 -286 57 -751 56 -1264
552 -1475 1425 -22 91 -59 264 -82 385 -120 637 -209 939 -361 1225 -107 200
-212 343 -429 586 -717 800 -1543 1920 -2298 3114 -717 1134 -2091 3587 -2832
5055 -323 641 -411 845 -470 1090 -85 349 -240 1206 -385 2125 -68 434 -137
950 -161 1205 -8 88 -23 251 -34 363 -11 111 -29 293 -40 405 -11 111 -33 342
-50 512 -68 698 -107 1094 -140 1443 -6 59 -15 152 -20 207 -6 55 -24 251 -41
435 -16 184 -39 430 -49 545 -11 116 -24 264 -30 330 -26 296 -52 594 -65 760
-8 99 -19 232 -25 295 -15 185 -37 480 -60 815 -38 578 -35 861 21 1500 39
454 166 1505 183 1523 2 2 95 -17 207 -42 821 -180 1106 -216 1714 -216 1230
0 2633 273 3411 663 407 204 1107 770 1973 1596 l151 143 0 -43 c0 -79 21
-222 50 -334 91 -362 313 -772 652 -1205 498 -637 1047 -1550 1759 -2920 531
-1023 1223 -2502 1531 -3270 295 -736 1827 -5003 2056 -5730 22 -69 51 -195
65 -280 31 -185 90 -656 127 -1012 5 -54 15 -142 20 -195 22 -202 51 -493 65
-648 8 -88 19 -205 24 -260 6 -55 17 -176 25 -270 9 -93 20 -215 26 -270 16
-174 50 -542 70 -777 5 -65 15 -170 20 -233 6 -63 15 -167 20 -230 6 -63 15
-168 20 -232 15 -167 49 -566 60 -708 6 -66 22 -258 36 -427 l26 -307 -92
-413 c-124 -556 -259 -1135 -570 -2433 -89 -369 -196 -804 -254 -1030 -102
-395 -126 -605 -126 -1125 0 -454 27 -810 85 -1145 9 -49 22 -127 30 -171 91
-527 115 -1547 46 -1966 -23 -140 -75 -296 -128 -386 -36 -64 -141 -182 -356
-402 -215 -221 -301 -323 -352 -421 -47 -90 -131 -201 -245 -324 -221 -240
-274 -330 -236 -403 30 -58 133 -90 383 -118 291 -32 1319 -29 1593 6 41 5
134 14 205 20 72 6 150 12 175 15 25 2 122 7 215 10 175 7 288 -1 470 -31 148
-25 483 -26 546 -1 90 35 92 39 66 277 -15 142 -37 709 -37 971 l0 133 188
190 c600 610 894 1043 869 1285 -10 98 -35 121 -248 232 -210 109 -419 228
-526 301 l-73 49 0 64 c0 36 -4 199 -10 362 -5 164 -14 467 -20 673 -6 206
-15 528 -20 715 -9 324 -17 598 -40 1395 -6 195 -17 605 -25 910 -8 305 -20
699 -25 875 -5 176 -10 383 -11 460 -2 149 -7 113 162 1003 10 56 28 148 38
205 108 567 318 1637 411 2085 17 78 44 208 61 290 327 1576 552 2475 703
2811 109 241 267 654 641 1676 768 2098 997 2658 1202 2938 31 44 40 63 35 78
-5 11 -177 249 -384 527 -206 279 -874 1179 -1483 2001 l-1107 1494 -265 731
c-241 663 -267 741 -279 836 -8 58 -26 186 -39 285 -13 99 -36 264 -50 368
-14 103 -24 191 -20 196 3 5 -1 51 -10 103 -42 265 -49 409 -50 928 0 470 6
624 35 1015 33 426 90 963 136 1265 9 58 65 303 125 545 118 478 258 1083 338
1455 169 788 262 1297 367 2004 4 27 9 35 14 25 19 -33 271 -741 382 -1069
156 -466 245 -761 318 -1055 32 -132 86 -350 119 -485 52 -210 160 -635 311
-1215 21 -82 57 -220 79 -305 264 -1020 507 -2039 621 -2605 121 -601 146
-793 170 -1295 68 -1449 116 -2067 190 -2460 29 -151 61 -349 101 -615 10 -71
26 -170 35 -220 8 -49 20 -119 25 -155 6 -36 27 -148 46 -250 19 -102 39 -210
44 -240 10 -53 56 -296 219 -1165 91 -487 186 -868 259 -1045 49 -118 99 -211
116 -217 12 -3 37 38 358 602 54 94 131 223 172 287 135 213 247 410 341 603
90 184 210 488 241 610 21 80 13 168 -25 278 -47 134 -82 192 -214 351 -103
123 -148 226 -193 437 -64 307 -151 526 -302 759 -98 149 -174 242 -339 410
-168 172 -188 201 -238 339 -142 396 -424 1885 -516 2726 -39 362 -61 542
-116 950 -30 226 -59 442 -64 480 -5 39 -23 171 -40 295 -36 262 -200 1493
-229 1720 -113 865 -221 1795 -261 2250 -6 69 -15 172 -20 230 -6 58 -14 308
-20 555 -5 248 -14 551 -20 675 -54 1163 -231 2131 -526 2876 -85 216 -157
365 -303 629 -67 121 -217 411 -333 645 -264 532 -319 634 -423 790 -131 197
-247 317 -410 425 -95 63 -163 97 -393 199 -95 42 -268 123 -385 180 l-212
103 -230 198 c-702 604 -1210 1090 -1501 1435 -72 85 -172 194 -223 242 -384
366 -1030 689 -1746 873 -282 73 -474 105 -865 145 -872 89 -2860 527 -3745
824 -680 229 -2254 944 -3240 1471 -1319 706 -2221 1352 -2607 1866 -30 41
-180 272 -333 514 -661 1045 -905 1408 -1118 1661 -42 50 -93 106 -114 124
l-37 33 23 42 c12 23 45 73 72 110 27 38 48 76 47 84 -3 14 -26 16 -168 16
-159 0 -167 -1 -223 -27 l-59 -28 7 42 c19 111 74 233 154 343 28 38 50 74 48
80 -5 15 -131 26 -230 20 -162 -11 -258 -69 -307 -188 -13 -31 -29 -57 -36
-57 -13 0 -90 144 -177 329 -27 57 -98 230 -158 384 -127 324 -178 435 -248
534 -87 124 -200 193 -314 193 -135 0 -334 51 -537 137 -195 83 -530 270 -530
296 0 7 7 48 15 92 39 216 0 404 -98 479 -72 55 -148 67 -337 52 -186 -15
-329 27 -440 131 -56 51 -130 171 -130 209 0 21 -166 209 -285 322 -247 236
-464 350 -612 323 -84 -16 -123 -63 -131 -158 -2 -29 -7 -53 -10 -53 -7 0 -15
10 -179 240 -277 387 -354 476 -472 539 -87 46 -160 61 -341 71 -109 6 -192
16 -244 29 -297 78 -591 294 -1096 807 -235 239 -312 329 -532 624 -161 215
-250 308 -330 345 -29 13 -107 36 -173 51 -66 14 -157 40 -203 56 -210 76
-381 249 -527 534 -76 147 -125 281 -205 556 -109 371 -151 474 -247 600 -59
77 -138 140 -236 187 -45 21 -145 69 -222 106 -308 146 -398 232 -740 710
-209 292 -270 369 -347 440 -100 93 -274 183 -455 235 -40 11 -87 33 -104 48
-114 95 -291 510 -465 1084 -140 467 -193 554 -498 822 -83 73 -223 207 -311
297 -383 393 -622 735 -633 904 -5 79 -3 82 166 260 193 203 236 281 196 354
-35 64 -106 88 -354 121 -291 38 -520 97 -638 166 -68 40 -140 111 -170 169
-22 43 -26 63 -27 141 l0 92 64 127 c75 148 80 185 38 258 -31 53 -83 100
-187 168 -95 63 -195 101 -378 145 -238 57 -276 93 -275 259 0 89 8 136 58
370 29 138 65 372 65 427 0 28 10 50 36 85 43 56 54 83 54 127 0 64 -83 114
-234 141 -64 11 -97 22 -114 38 -47 42 -113 157 -246 429 -197 399 -278 529
-510 814 -205 251 -335 497 -504 954 -60 162 -121 338 -135 390 -83 303 -102
363 -137 436 -34 71 -52 93 -135 169 -110 102 -151 159 -320 455 -196 341
-268 436 -440 578 -125 103 -308 307 -444 496 l-71 99 0 426 0 426 -103 310
-104 311 125 64 c479 248 878 483 1049 618 28 23 78 74 109 114 32 40 106 123
164 183 178 185 229 261 230 338 0 78 -84 128 -295 172 -338 72 -840 117
-1515 135 -374 10 -781 38 -953 66 -36 6 -38 8 -32 32 34 134 38 327 10 432
-80 304 -347 460 -790 460 -253 0 -443 -49 -642 -166 -51 -30 -96 -54 -102
-54 -23 0 -31 45 -31 172 0 73 -5 225 -10 338 -14 299 -45 436 -104 475 -42
28 -82 13 -176 -66 -103 -86 -246 -158 -443 -224 -120 -40 -433 -125 -460
-125 -13 0 7 222 44 495 14 110 85 449 115 554 65 227 88 260 263 381 166 116
312 256 364 350 106 192 100 394 -17 635 -88 180 -195 304 -314 362 -50 25
-68 28 -152 28 -87 0 -101 -3 -165 -33 -128 -61 -269 -185 -421 -372 -169
-208 -212 -333 -349 -1015 -164 -816 -220 -992 -339 -1069 -51 -33 -62 -33
-96 3 -46 51 -55 120 -54 436 1 319 7 373 90 880 30 182 63 400 74 485 11 85
25 198 32 250 17 133 17 411 -1 480 -18 73 -50 129 -83 146 -38 20 -158 17
-245 -6z"/>
</g>
</svg>
