<?xml version="1.0" standalone="no"?>
<!DOCTYPE svg PUBLIC "-//W3C//DTD SVG 20010904//EN"
 "http://www.w3.org/TR/2001/REC-SVG-20010904/DTD/svg10.dtd">
<svg version="1.0" xmlns="http://www.w3.org/2000/svg"
 width="640.000000pt" height="1280.000000pt" viewBox="0 0 640.000000 1280.000000"
 preserveAspectRatio="xMidYMid meet">
<metadata>
Created by potrace 1.15, written by Peter Selinger 2001-2017
</metadata>
<g transform="translate(0.000000,1280.000000) scale(0.100000,-0.100000)"
fill="#000000" stroke="none">
<path d="M3225 12794 c-71 -18 -115 -37 -120 -53 -3 -12 -27 -24 -68 -35 -34
-10 -72 -24 -85 -32 -32 -21 -134 -180 -151 -234 -7 -25 -24 -76 -37 -113 -15
-43 -24 -91 -24 -128 l0 -60 -27 15 c-57 29 -175 57 -265 63 -145 9 -269 -31
-364 -119 -35 -33 -48 -54 -61 -101 -13 -45 -27 -68 -59 -99 -54 -51 -64 -91
-64 -255 -1 -138 -5 -168 -68 -458 -22 -104 -50 -246 -62 -315 -31 -179 -48
-242 -74 -270 -22 -23 -24 -38 -35 -235 -6 -115 -13 -307 -16 -425 -6 -256
-13 -307 -61 -425 -33 -81 -37 -100 -39 -190 -1 -95 -13 -145 -36 -145 -19 0
-66 90 -80 152 -26 125 -14 423 25 573 40 159 56 272 59 411 l2 129 -53 109
c-30 59 -69 125 -88 146 -46 51 -120 81 -198 82 -74 0 -112 -17 -206 -92 -36
-29 -81 -60 -100 -70 -19 -10 -45 -29 -57 -42 -35 -37 -129 -244 -158 -347
-14 -52 -37 -115 -50 -141 -13 -26 -29 -69 -36 -95 -7 -26 -21 -56 -33 -67
-20 -19 -21 -27 -18 -206 l3 -187 -42 -130 c-33 -104 -42 -144 -41 -200 0 -38
-6 -144 -14 -235 -55 -658 -76 -1025 -75 -1370 0 -298 2 -321 26 -435 31 -146
32 -222 4 -301 -49 -143 -65 -246 -124 -819 -14 -137 -39 -358 -55 -490 -62
-516 -74 -706 -74 -1180 -1 -563 7 -634 109 -1000 19 -71 56 -240 80 -374 57
-311 72 -371 101 -397 15 -14 25 -38 29 -70 15 -110 28 -156 52 -171 16 -11
23 -25 23 -49 0 -27 8 -39 40 -65 36 -29 40 -37 40 -79 0 -34 5 -52 20 -65 63
-57 107 -184 165 -478 88 -447 108 -636 109 -1004 1 -203 4 -273 13 -273 6 0
24 -19 40 -42 27 -39 41 -48 106 -62 15 -4 52 -29 82 -56 45 -41 60 -49 82
-44 16 3 64 -4 107 -16 44 -11 108 -20 144 -20 47 0 95 -10 175 -36 61 -19
133 -40 161 -46 36 -8 280 -12 811 -12 418 -1 875 -5 1015 -10 308 -10 505 2
528 35 11 16 25 19 102 19 79 0 91 2 100 20 6 10 28 24 49 30 62 16 301 172
320 209 6 9 22 75 38 147 26 123 28 141 27 374 0 135 -8 344 -18 465 -23 310
-8 414 69 489 49 46 65 80 65 134 0 42 29 95 59 112 12 6 44 45 73 88 28 42
79 106 112 142 67 71 115 145 229 350 67 119 223 346 269 389 9 9 35 50 58 91
24 41 57 96 76 122 45 64 77 128 130 266 24 64 54 124 65 132 13 11 22 36 29
80 19 119 31 159 51 165 10 4 22 18 25 33 12 55 17 69 66 182 119 272 125 319
112 885 -5 226 -9 761 -9 1190 0 870 6 787 -77 1148 -56 247 -60 371 -24 655
49 380 46 490 -20 620 -90 180 -237 262 -390 217 -71 -20 -235 -116 -269 -157
-14 -16 -25 -38 -25 -47 0 -45 -22 -78 -63 -97 -40 -18 -42 -21 -42 -62 0 -37
-5 -47 -37 -75 -44 -39 -62 -73 -84 -163 -10 -38 -24 -85 -32 -104 -13 -33
-15 -33 -28 -15 -30 40 -35 94 -28 288 8 219 1 286 -50 484 -18 71 -31 143
-29 160 3 19 -2 41 -12 57 -15 22 -17 40 -11 109 7 81 6 84 -25 130 -26 40
-31 58 -34 120 -2 63 -5 72 -23 75 -15 2 -21 13 -25 40 -6 36 -18 287 -36 712
-5 118 -19 276 -30 350 -11 74 -34 236 -51 360 -44 318 -73 456 -126 586 -29
72 -44 123 -42 145 3 29 0 34 -20 37 -20 3 -22 9 -20 42 1 22 0 42 -3 44 -94
100 -191 190 -232 212 -45 25 -63 29 -132 29 -90 0 -170 -24 -180 -55 -3 -11
-19 -21 -38 -25 -45 -10 -80 -46 -144 -150 -59 -96 -81 -125 -94 -125 -5 0 -8
136 -6 303 l2 302 -49 105 c-118 252 -255 379 -416 386 -36 2 -74 1 -85 -2z"/>
</g>
</svg>
