<svg width="458" height="601" xmlns="http://www.w3.org/2000/svg" xmlns:xlink="http://www.w3.org/1999/xlink" xml:space="preserve" overflow="hidden"><g transform="translate(-1746 -1434)"><g><path d="M1962.34 2032C1962.34 2032 1973.02 1996.42 1924.01 1952.11L1875 1908.42C1875 1908.42 1847.35 1882.21 1837.3 1844.13 1827.25 1806.06 1806.51 1797.95 1778.87 1773.6 1751.22 1749.26 1725.46 1716.81 1775.1 1720.55 1824.73 1724.3 1859.92 1774.85 1859.92 1774.85L1885.68 1802.32C1885.68 1802.32 1895.73 1812.93 1910.19 1781.72 1924.64 1750.51 1918.98 1721.8 1919.61 1709.94 1920.87 1698.08 1898.25 1513.34 1898.25 1513.34 1898.25 1513.34 1895.73 1479.63 1918.35 1477.14 1940.34 1474.64 1939.72 1497.11 1939.72 1497.11L1957.94 1588.86C1957.94 1588.86 1971.13 1651.27 1971.13 1658.76 1971.76 1666.25 1991.24 1679.98 1995.64 1662.51 1995.64 1662.51 1993.12 1588.86 1994.38 1575.75 1995.64 1562.64 1997.52 1493.36 1998.15 1480.88L2003.18 1455.29C2003.18 1455.29 2013.23 1437.82 2023.91 1439.06 2034.59 1440.31 2045.27 1450.92 2044.65 1462.16 2044.02 1472.77 2042.76 1535.18 2042.76 1535.18L2045.9 1606.33 2045.27 1650.02C2045.27 1650.02 2051.56 1679.98 2057.84 1645.03 2057.84 1645.03 2061.61 1588.23 2069.15 1566.39 2069.78 1565.14 2069.78 1563.27 2069.78 1563.27 2069.78 1563.27 2076.69 1512.71 2076.69 1501.48 2076.69 1490.24 2084.86 1463.41 2095.54 1463.41 2106.22 1463.41 2118.16 1472.14 2116.9 1485.25 2115.64 1498.36 2114.39 1552.66 2114.39 1552.66 2114.39 1552.66 2112.5 1648.15 2106.85 1666.25L2104.33 1685.6C2104.33 1685.6 2108.1 1701.83 2113.13 1702.45 2118.79 1703.08 2120.67 1702.45 2125.07 1694.96 2128.84 1686.85 2152.09 1616.32 2152.09 1613.82 2152.09 1611.33 2167.8 1563.89 2167.8 1563.89 2167.8 1563.89 2172.82 1547.04 2189.79 1549.54 2206.75 1552.03 2201.1 1570.13 2201.1 1577 2201.1 1583.87 2187.9 1637.54 2187.9 1637.54L2174.08 1688.1C2174.08 1688.1 2162.77 1733.66 2165.28 1771.11 2167.8 1807.93 2165.28 1890.32 2142.66 1941.5 2119.41 1992.68 2129.47 1995.8 2131.35 2010.16 2132.61 2023.26 1962.34 2032 1962.34 2032Z" fill="#000000" fill-rule="evenodd" fill-opacity="1"/></g></g></svg>