<svg width="284" height="664" xmlns="http://www.w3.org/2000/svg" xmlns:xlink="http://www.w3.org/1999/xlink" xml:space="preserve" overflow="hidden"><defs><clipPath id="clip0"><rect x="1228" y="1407" width="284" height="664"/></clipPath><clipPath id="clip1"><rect x="1228" y="1407" width="284" height="664"/></clipPath></defs><g clip-path="url(#clip0)" transform="translate(-1228 -1407)"><g clip-path="url(#clip1)"><path d="M1511.7 1768.29C1511.7 1766.89 1495.54 1668.74 1490.62 1636.72 1485 1598.44 1459.01 1569.2 1423.88 1559.46 1421.78 1558.76 1418.97 1559.46 1416.86 1560.15 1402.81 1567.81 1387.35 1571.99 1370.49 1571.99 1353.63 1571.99 1337.47 1567.81 1324.13 1560.15 1322.02 1558.76 1319.91 1558.76 1317.1 1559.46 1281.97 1569.2 1255.98 1598.44 1250.36 1636.72 1245.44 1668.74 1229.28 1766.89 1229.28 1768.29 1227.18 1782.21 1237.01 1794.74 1250.36 1796.83 1251.77 1796.83 1253.17 1796.83 1254.58 1796.83 1267.22 1796.83 1277.76 1787.78 1279.87 1775.25 1279.87 1774.55 1298.83 1658.3 1300.94 1644.38 1300.94 1643.68 1301.64 1642.99 1302.35 1642.99 1303.75 1642.99 1305.16 1643.68 1305.16 1645.08L1305.16 1800.31 1282.68 2032.8C1281.27 2050.9 1294.62 2066.91 1312.18 2068.3 1330.45 2069.7 1346.61 2056.47 1348.01 2039.07L1369.79 1812.84C1369.79 1812.14 1370.49 1811.44 1371.19 1811.44 1371.9 1811.44 1372.6 1812.14 1372.6 1812.84L1394.38 2039.07C1395.78 2055.77 1410.54 2069 1427.4 2069 1428.1 2069 1429.5 2069 1430.21 2069 1448.47 2067.61 1461.82 2051.6 1459.71 2033.5L1436.53 1801.7 1437.23 1645.08C1437.23 1644.38 1437.93 1643.68 1438.64 1643.68 1439.34 1643.68 1440.04 1644.38 1440.04 1645.08 1442.15 1658.3 1461.12 1775.94 1461.12 1776.64 1463.22 1789.17 1473.76 1798.22 1486.41 1798.22 1487.81 1798.22 1489.22 1798.22 1490.62 1798.22 1504.67 1794.74 1513.81 1782.21 1511.7 1768.29Z" fill="#000000" fill-rule="evenodd" fill-opacity="1"/><path d="M1441 1478C1441 1516.66 1409.44 1548 1370.5 1548 1331.56 1548 1300 1516.66 1300 1478 1300 1439.34 1331.56 1408 1370.5 1408 1409.44 1408 1441 1439.34 1441 1478Z" fill="#000000" fill-rule="evenodd" fill-opacity="1"/></g></g></svg>