<?xml version="1.0" standalone="no"?>
<!DOCTYPE svg PUBLIC "-//W3C//DTD SVG 20010904//EN"
 "http://www.w3.org/TR/2001/REC-SVG-20010904/DTD/svg10.dtd">
<svg version="1.0" xmlns="http://www.w3.org/2000/svg"
 width="640.000000pt" height="1280.000000pt" viewBox="0 0 640.000000 1280.000000"
 preserveAspectRatio="xMidYMid meet">
<metadata>
Created by potrace 1.15, written by Peter Selinger 2001-2017
</metadata>
<g transform="translate(0.000000,1280.000000) scale(0.100000,-0.100000)"
fill="#000000" stroke="none">
<path d="M3043 12786 c-410 -79 -707 -399 -753 -813 -18 -167 9 -328 81 -481
258 -553 958 -703 1431 -307 129 108 239 282 290 460 30 106 33 343 5 445 -63
229 -185 409 -363 536 -82 58 -212 119 -309 145 -103 26 -284 34 -382 15z"/>
<path d="M1646 10439 c-213 -31 -381 -119 -523 -273 -113 -123 -182 -274 -203
-446 -14 -117 -14 -3801 1 -3889 22 -138 95 -238 217 -298 74 -37 79 -38 186
-38 104 0 115 2 178 32 85 40 151 106 191 191 l32 67 3 1533 2 1532 150 0 150
0 0 -4224 c0 -4203 0 -4224 20 -4289 47 -153 192 -282 361 -322 271 -63 540
105 588 369 8 42 11 762 11 2383 l0 2323 190 0 190 0 0 -2324 c0 -1538 3
-2341 10 -2377 45 -238 271 -406 517 -385 223 18 414 183 452 390 8 43 11
1263 11 4258 l0 4198 145 0 145 0 2 -1532 3 -1533 32 -67 c40 -85 106 -151
191 -191 63 -30 74 -32 178 -32 107 0 112 1 186 38 122 60 195 160 217 298 15
88 15 3772 1 3889 -41 338 -278 604 -619 698 l-96 27 -1530 1 c-841 1 -1557
-2 -1589 -7z"/>
</g>
</svg>
