<svg width="459" height="647" xmlns="http://www.w3.org/2000/svg" xmlns:xlink="http://www.w3.org/1999/xlink" xml:space="preserve" overflow="hidden"><g transform="translate(-77 -1397)"><g><path d="M41.0002 25.8078C29.1215 26.9645 19.2174 27.6585 11.5328 27.9998 9.90414 24.0787 8.38735 20.2563 6.87055 16.4234 4.66226 10.8716 2.45363 5.30923 0 0 11.8897 5.67282 26.4335 14.4625 41.0002 25.8078Z" fill="#000000" fill-rule="evenodd" fill-opacity="1" transform="matrix(1.83697e-16 1 1 -1.83697e-16 429 1629)"/><path d="M158 92.0001C63.0564 78.6422 17.9071 37.1187 0 0 21.2473 30.0138 63.8527 64.222 152.547 75.2668 153.941 80.4793 155.799 86.1901 158 92.0001Z" fill="#000000" fill-rule="evenodd" fill-opacity="1" transform="matrix(1.83697e-16 1 1 -1.83697e-16 363 1407)"/><path d="M151 88.0003C50.7966 74.4346 14.6488 30.1532 0 0 22.8116 23.536 67.8503 57.1633 149.158 73.7288 149.368 77.0814 149.963 82.0557 151 88.0003Z" fill="#000000" fill-rule="evenodd" fill-opacity="1" transform="matrix(1.83697e-16 1 1 -1.83697e-16 338 1406)"/><path d="M640 0C636.789 47.1539 581.462 76.4098 580.767 76.6528 578.814 77.7133 577.556 79.7795 577.666 82.0995 585.622 281.487 391.371 359.609 287.581 373.088 286.323 373.331 285.142 373.442 283.884 373.564 262.797 355.334 236.425 339.071 217.754 332.818 213.142 326.642 207.393 320.963 199.658 315.969 197.032 314.223 193.456 315.041 191.724 317.825 189.992 320.499 190.786 324.111 193.456 325.846 210.505 336.762 216.618 352.218 223.526 370.205 225.479 375.187 227.542 380.325 229.859 385.529 229.97 385.761 230.08 386.015 230.179 386.236 231.437 389.142 232.717 392.036 234.218 394.942 246.323 418.508 258.549 440.118 265.887 453 215.559 437.898 190.201 407.935 177.423 380.988 177.192 380.192 176.849 379.386 176.375 378.679 172.116 369.376 169.357 360.449 167.614 352.771 167.614 352.097 167.504 351.511 167.139 350.914 164.414 337.8 164.414 328.498 164.414 327.227 164.414 324.432 162.461 321.979 159.812 321.427 58.4054 301.794 14.4994 255.59 0 235.836 21.5394 232.367 95.4153 233.295 180.778 234.455 228.127 235.151 281.699 235.836 332.038 235.836 417.07 235.836 507.619 200.183 547.365 151.206 564.634 129.839 571.332 106.848 566.852 84.5523 566.378 82.0995 564.425 80.2323 562.019 79.9008 561.324 79.9008 492.535 69.4492 481.478 17.191 486.323 19.8648 492.646 22.5383 499.674 23.7096 504.761 24.516 510.058 24.9691 515.354 25.3338 519.371 25.6649 523.288 25.9083 527.084 26.3831 540.811 28.2395 553.015 39.9614 553.125 40.0831 554.747 41.5744 557.043 41.9391 559.139 41.2321 561.203 40.4146 562.67 38.5582 562.946 36.3599 562.946 35.9068 564.204 26.6041 581.705 22.7816 584.574 22.196 587.564 21.6323 590.698 20.9253 598.742 19.4228 607.04 17.7987 614.312 15.1252 625.501 11.1587 634.008 5.12635 640 0Z" fill="#000000" fill-rule="evenodd" fill-opacity="1" transform="matrix(1.83697e-16 1 1 -1.83697e-16 80.0003 1402)"/></g></g></svg>