<svg xmlns="http://www.w3.org/2000/svg" xmlns:xlink="http://www.w3.org/1999/xlink" version="1.1" x="0px" y="0px" viewBox="0 0 100 125" style="enable-background:new 0 0 100 100;" xml:space="preserve"><g><path d="M91.817,46.189c-3.476-3.015-8.418-4.858-13.161-4.889h-0.052c-3.413,0-11.506,1.497-18.825,3.047   c5.036-5.591,10.407-11.873,12.082-14.815c2.345-4.125,3.225-9.318,2.345-13.841c-0.304-1.602-0.879-3.193-1.717-4.67   c-1.686,0.021-3.34,0.325-4.879,0.859c-4.356,1.508-8.418,4.858-10.816,8.952c-1.623,2.764-4.178,9.926-6.429,16.752   c-0.126,0.377-0.241,0.743-0.366,1.12c-2.335-7.151-5.088-14.951-6.795-17.872c-2.398-4.094-6.46-7.444-10.816-8.952   c-1.539-0.534-3.193-0.838-4.879-0.859c-0.838,1.476-1.414,3.068-1.717,4.67c-0.879,4.523,0,9.716,2.345,13.841   c1.591,2.785,6.502,8.575,11.297,13.946c0.262,0.293,0.523,0.586,0.785,0.869c-7.36-1.55-15.496-3.068-18.877-3.047   c-4.743,0.031-9.685,1.874-13.161,4.889C6.947,47.257,5.859,48.545,5,50c0.859,1.455,1.947,2.743,3.183,3.811   c3.476,3.015,8.418,4.858,13.161,4.889h0.052c3.413,0,11.506-1.497,18.825-3.047c-5.036,5.591-10.407,11.873-12.082,14.815   c-2.345,4.125-3.225,9.318-2.345,13.841c0.304,1.602,0.879,3.193,1.717,4.67c1.686-0.021,3.34-0.325,4.879-0.859   c4.356-1.508,8.418-4.858,10.816-8.952c1.623-2.764,4.178-9.926,6.429-16.752c0.126-0.377,0.241-0.743,0.366-1.12   c2.335,7.151,5.088,14.951,6.795,17.872c2.398,4.094,6.46,7.444,10.816,8.952c1.539,0.534,3.193,0.838,4.879,0.859   c0.838-1.476,1.414-3.068,1.717-4.67c0.879-4.523,0-9.716-2.345-13.841c-1.591-2.785-6.502-8.575-11.297-13.946   c-0.262-0.293-0.523-0.586-0.785-0.869c7.36,1.55,15.496,3.068,18.877,3.047c4.743-0.031,9.685-1.874,13.161-4.889   C93.053,52.743,94.141,51.455,95,50C94.141,48.545,93.053,47.257,91.817,46.189z M55.203,53.049   c-0.785,0.84-1.515,1.588-2.154,2.264c-0.913,0.219-1.935,0.456-3.048,0.73c-1.114-0.274-2.136-0.511-3.048-0.73   c-0.639-0.675-1.369-1.424-2.154-2.264c-0.347-1.114-0.639-2.136-0.913-3.049c0.274-0.913,0.566-1.935,0.913-3.049   c0.785-0.84,1.515-1.588,2.154-2.264c0.913-0.219,1.935-0.456,3.048-0.73c1.114,0.274,2.136,0.511,3.048,0.73   c0.639,0.675,1.369,1.424,2.154,2.264c0.347,1.114,0.639,2.136,0.913,3.049C55.841,50.913,55.55,51.935,55.203,53.049z"/></g><text x="0" y="115" fill="#000000" font-size="5px" font-weight="bold" font-family="'Helvetica Neue', Helvetica, Arial-Unicode, Arial, Sans-serif">Created by Maxim Kulikov</text><text x="0" y="120" fill="#000000" font-size="5px" font-weight="bold" font-family="'Helvetica Neue', Helvetica, Arial-Unicode, Arial, Sans-serif">from the Noun Project</text></svg>