<svg xmlns="http://www.w3.org/2000/svg" xmlns:xlink="http://www.w3.org/1999/xlink" version="1.1" x="0px" y="0px" viewBox="0 0 24 30" enable-background="new 0 0 24 24" xml:space="preserve"><path d="M22.631,22.95l-1.666-6.865c1.991-4.048,2.209-7.398,0.63-9.951c-3-4.854-11.709-5.58-16.633-5.58  c-1.917,0-3.185,0.108-3.238,0.113c-0.11,0.009-0.21,0.064-0.279,0.15C1.376,0.905,1.346,1.016,1.362,1.125  c1.946,13.399,8.731,16.211,14.08,16.211c2.227,0,4.028-0.502,4.82-0.765l1.593,6.569c0.044,0.183,0.208,0.306,0.389,0.306  c0.031,0,0.063-0.004,0.095-0.012C22.551,23.382,22.683,23.165,22.631,22.95z M2.218,1.436c0.525-0.033,1.503-0.08,2.744-0.08  c4.758,0,13.157,0.675,15.953,5.2c1.334,2.158,1.204,5.011-0.345,8.473c-0.289-0.659-0.628-1.279-1.001-1.866l0.525-4.558  c0.008-0.068-0.041-0.13-0.109-0.138c-0.064-0.007-0.131,0.041-0.139,0.11l-0.491,4.253c-0.542-0.803-1.154-1.535-1.809-2.206  l0.435-5.219c0.005-0.069-0.046-0.129-0.114-0.135c-0.004,0-0.008,0-0.011,0c-0.064,0-0.119,0.049-0.125,0.115l-0.416,5.001  c-0.686-0.676-1.416-1.282-2.161-1.829l0.524-4.464c0.008-0.069-0.041-0.131-0.109-0.139c-0.067-0.01-0.13,0.041-0.139,0.109  l-0.507,4.323c-0.832-0.593-1.68-1.11-2.506-1.559l0.534-3.151c0.012-0.068-0.034-0.133-0.102-0.144  c-0.073-0.017-0.133,0.034-0.144,0.102l-0.521,3.07c-0.786-0.416-1.547-0.771-2.253-1.068l0.574-2.422  c0.016-0.067-0.025-0.134-0.093-0.15c-0.068-0.016-0.134,0.026-0.15,0.093L9.696,5.538C7.684,4.709,6.181,4.35,6.013,4.311  c-0.215-0.052-0.43,0.084-0.479,0.3c-0.05,0.215,0.084,0.43,0.3,0.479c0.036,0.008,1.188,0.284,2.839,0.92L4.82,6.539  C4.752,6.548,4.704,6.611,4.713,6.68c0.009,0.063,0.063,0.108,0.124,0.108c0.005,0,0.011,0,0.017-0.001l4.292-0.588  c0.705,0.286,1.482,0.633,2.291,1.047L5.896,8.467c-0.067,0.015-0.11,0.082-0.095,0.149c0.013,0.059,0.064,0.098,0.122,0.098  c0.009,0,0.018-0.001,0.027-0.003l5.833-1.286c0.845,0.448,1.717,0.966,2.572,1.567l-6.873,1.931  c-0.066,0.019-0.105,0.087-0.086,0.154c0.015,0.055,0.065,0.091,0.12,0.091c0.011,0,0.022-0.001,0.034-0.005l7.063-1.984  c0.774,0.56,1.528,1.187,2.231,1.886l-6.494,1.821c-0.066,0.019-0.105,0.087-0.086,0.154c0.015,0.055,0.065,0.091,0.12,0.091  c0.011,0,0.022-0.002,0.034-0.005l6.627-1.859c0.685,0.705,1.313,1.481,1.856,2.332l-5.299,1.071  c-0.068,0.014-0.111,0.079-0.098,0.146c0.012,0.06,0.063,0.101,0.122,0.101c0.008,0,0.017-0.001,0.024-0.003l5.394-1.089  c0.378,0.619,0.707,1.28,0.98,1.979c-0.728,0.241-2.467,0.732-4.583,0.732C10.465,16.536,4.16,13.902,2.218,1.436z"/><text x="0" y="39" fill="#000000" font-size="5px" font-weight="bold" font-family="'Helvetica Neue', Helvetica, Arial-Unicode, Arial, Sans-serif">Created by myiconfinder</text><text x="0" y="44" fill="#000000" font-size="5px" font-weight="bold" font-family="'Helvetica Neue', Helvetica, Arial-Unicode, Arial, Sans-serif">from the Noun Project</text></svg>