<svg xmlns="http://www.w3.org/2000/svg" xmlns:xlink="http://www.w3.org/1999/xlink" xml:space="preserve" version="1.1" style="shape-rendering:geometricPrecision;text-rendering:geometricPrecision;image-rendering:optimizeQuality;" viewBox="0 0 218 331.25" x="0px" y="0px" fill-rule="evenodd" clip-rule="evenodd"><defs><style type="text/css">
   
    .fil0 {fill:black;fill-rule:nonzero}
   
  </style></defs><g><path class="fil0" d="M121 174l0 32 19 -16 7 7 -26 24 0 44 -24 0c0,-80 7,-59 -21,-102 -70,23 -104,-72 -48,-104 1,-14 14,-24 28,-24 21,-47 87,-47 107,2 22,-15 50,7 41,32 33,35 7,104 -47,97 -8,11 -23,15 -36,8zm-24 2l0 -24c-4,2 -8,5 -11,6l11 18z"/></g><text x="0" y="280" fill="#000000" font-size="5px" font-weight="bold" font-family="'Helvetica Neue', Helvetica, Arial-Unicode, Arial, Sans-serif">Created by Joni Ramadhan</text><text x="0" y="285" fill="#000000" font-size="5px" font-weight="bold" font-family="'Helvetica Neue', Helvetica, Arial-Unicode, Arial, Sans-serif">from the Noun Project</text></svg>