<svg xmlns="http://www.w3.org/2000/svg" xmlns:xlink="http://www.w3.org/1999/xlink" version="1.1" x="0px" y="0px" viewBox="-260 352 90 112.5" style="enable-background:new -260 352 90 90;" xml:space="preserve"><path d="M-200.6,379.3c-1.2-1.5-4.8-5.8-11-6c-0.3,0-6.3-0.1-10.5,4.5c-2.2,2.5-3,5.2-3.2,6.1c-0.5,2-0.4,3.3-0.4,4.5  c0.1,1.1,0.1,2-0.3,3.5c-0.6,2.1-1.7,3.7-2,4.1c-0.6,0.8-1,1.2-1.5,1.6c-0.5,0.4-1,0.9-1.7,1.8c-2.2,3-2,6.5-2,7.8  c0,1.9,0.6,8.3,6,11.7c2.3,1.4,4.7,1.8,6.6,1.8c1.2,0,2.2-0.1,3-0.2c4-0.5,6.7-2,7.7-2.6c8-4.6,13.3-15.2,13-25.7  C-196.8,389-196.9,383.8-200.6,379.3z M-222,400.2c-0.8-0.8-0.9-2-0.1-2.8c0.8-0.9,1.4-1.8,1.8-2.9c0.7-1.8,0.7-3.5,0.6-4.6  c-0.1-1.1,0.7-2.1,1.8-2.2c1.1-0.1,2.1,0.7,2.2,1.8c0.3,2.1,0,4.3-0.8,6.4c-0.6,1.5-1.5,2.9-2.6,4.1c-0.4,0.4-0.9,0.7-1.5,0.7  C-221.1,400.7-221.6,400.5-222,400.2z"/><text x="-260" y="457" fill="#000000" font-size="5px" font-weight="bold" font-family="'Helvetica Neue', Helvetica, Arial-Unicode, Arial, Sans-serif">Created by Aham Brahma</text><text x="-260" y="462" fill="#000000" font-size="5px" font-weight="bold" font-family="'Helvetica Neue', Helvetica, Arial-Unicode, Arial, Sans-serif">from the Noun Project</text></svg>