<svg xmlns="http://www.w3.org/2000/svg" xmlns:xlink="http://www.w3.org/1999/xlink" xml:space="preserve" version="1.1" style="shape-rendering:geometricPrecision;text-rendering:geometricPrecision;image-rendering:optimizeQuality;" viewBox="0 0 846.66 1058.325" x="0px" y="0px" fill-rule="evenodd" clip-rule="evenodd"><defs><style type="text/css">
   
    .fil0 {fill:black}
   
  </style></defs><g><path class="fil0" d="M346.24 796.58c61.1,0 122.22,0 183.32,0 24.34,-99.9 50.28,-257.44 171.8,-310.2 -113.36,8.08 -85.82,3.49 -149.69,78.68 28.02,-112.58 38.27,-133.89 136.94,-219.05 -82.72,4.29 -113.93,37.99 -168.26,92.98 44.58,-90.23 86.49,-177.54 138.15,-265.54 -146.65,128.48 -157.67,165.52 -204.22,336.17 15.98,-156.01 28.82,-303.09 33.67,-459.55 -39.85,152.89 -85.52,297.68 -82.38,455.12 -23.25,-98.76 -51.09,-251.92 -128.8,-332.61 33.29,126.98 48.87,251.05 85.87,375.53 -51.25,-87.02 -94.46,-215.07 -194.93,-271.81 35.98,62.29 71.94,124.59 107.91,186.87 -133.5,-59.15 -152.49,103.07 -110.24,134.12 8.46,-70.46 55.79,-136.38 107.92,-34.87 24.32,78.05 48.63,156.11 72.94,234.16zm-14.92 -168.2l90.77 137.22 -40.23 0 -50.54 -137.22z"/></g><text x="0" y="861.66" fill="#000000" font-size="5px" font-weight="bold" font-family="'Helvetica Neue', Helvetica, Arial-Unicode, Arial, Sans-serif">Created by lieuchien</text><text x="0" y="866.66" fill="#000000" font-size="5px" font-weight="bold" font-family="'Helvetica Neue', Helvetica, Arial-Unicode, Arial, Sans-serif">from the Noun Project</text></svg>