<svg xmlns="http://www.w3.org/2000/svg" xmlns:xlink="http://www.w3.org/1999/xlink" version="1.1" x="0px" y="0px" viewBox="0 0 50 62.5" enable-background="new 0 0 50 50" xml:space="preserve"><path fill="#000000" stroke="#231F20" stroke-width="0.1035" stroke-miterlimit="10" d="M32.125,2.05  c0.012,1.131-0.017,2.259-0.086,3.389c-0.049,0.817-0.111,1.633-0.18,2.449c-0.076,0.917-0.16,1.834-0.254,2.75  c-0.092,0.913-0.192,1.826-0.308,2.736c-0.097,0.787-0.205,1.573-0.332,2.356c-0.112,0.682-0.245,1.36-0.388,2.037  c-0.043,0.198-0.084,0.395-0.127,0.593c-0.129,0.592-0.267,1.181-0.421,1.766c-0.176,0.669-0.372,1.334-0.582,1.994  c-0.213,0.672-0.466,1.331-0.677,2.002c-0.18,0.503-0.372,1.002-0.573,1.497c-0.071-0.349-0.229-0.685-0.495-0.98  c-0.699,0.94-0.648,1.967-0.651,3.492c-0.002,0.004-0.005,0.008-0.006,0.013c-0.078-1.646-0.954-3.016-2.255-3.736  c-0.359,1.526,0.81,2.784,2.158,3.827l0.025,0.048c-0.001,0.001-0.001,0.002-0.002,0.003c-1.14-0.643-2.568-1.246-3.496-0.819  c1.307,1.524,2.013,1.407,3.493,0.827c-0.063,0.122-0.125,0.244-0.188,0.365c-0.062,0.119-0.125,0.238-0.187,0.357  c-0.021,0.037-0.152,0.339-0.183,0.339c-0.216,0.403-0.44,0.802-0.673,1.194c-0.021-0.619-0.439-1.32-1.189-1.437  c0.047,0.662,0.44,1.105,0.995,1.755c-0.002,0.005-0.006,0.01-0.009,0.015c-0.673-0.66-1.566-0.937-2.406-0.786  c0.408,0.782,1.342,0.952,2.302,0.95c-0.012,0.02-0.026,0.04-0.039,0.062c-0.704,0.142-1.435,0.397-1.664,0.88  c0.485,0.086,0.817,0.083,1.073-0.003c-0.044,0.062-0.085,0.125-0.129,0.187c-0.361,0.494-0.737,0.981-1.127,1.452  c-0.225,0.278-0.451,0.547-0.696,0.807c-0.609,0.646-1.268,1.248-1.972,1.79c-0.192,0.149-0.389,0.293-0.589,0.432  c-0.395,0.275-0.801,0.53-1.22,0.767c-0.362,0.199-0.71,0.405-0.87,0.811c-0.121,0.307-0.148,0.647-0.154,0.974  c-0.005,0.294,0.012,0.586,0.022,0.88c0.022,0.628,0.013,1.243-0.075,1.865c-0.045,0.319-0.097,0.639-0.152,0.956  c-0.037,0.213-0.139,0.382-0.351,0.448c-0.208,0.066-0.44,0.053-0.655,0.043c-0.106-0.004-0.213-0.015-0.32-0.017  c-0.248-0.006-0.495-0.009-0.743-0.015c-0.597-0.015-1.256-0.036-1.817,0.191c-0.42,0.17-0.898,0.556-1.01,1.002  c-0.131,0.53,0.199,0.979,0.633,1.308c-0.325-0.116-0.738-0.086-0.992,0.218c0.226,0.222,0.66,0.186,0.975,0.12  c-0.36,0.154-0.566,0.419-0.711,0.804c0.518,0.042,0.836-0.306,0.955-0.441c-0.039,0.142-0.188,0.667,0.054,0.823  c0.545-0.541,0.318-1.164,0.323-1.162c0.183,0.514,0.577,0.882,1.058,1.023c-0.009-0.691-1.072-1.184-1.082-1.191  c0.453,0.137,1.003,0.237,1.293,0.016c-0.584-0.435-0.822-0.338-1.295-0.017c-0.243-0.21-1.549-1.187-0.637-1.909  c0.431-0.454,1.457-0.253,2.006-0.193c0.608,0.065,1.25,0.207,1.863,0.129c0.259-0.034,0.559-0.18,0.738-0.366  c0.218-0.228,0.311-0.543,0.356-0.847c0.152-1.011-0.04-2.034,0.074-3.047c0.039-0.343,0.07-0.702,0.218-1.018  c0.287-0.612,1.024-0.841,1.565-1.163c0.388-0.23,0.694-0.601,1.042-0.888c-0.243,0.343-0.222,1.02,0.183,1.345  c0.205-0.397,0.119-0.783,0.024-1.36c0.001-0.001,0.003-0.002,0.004-0.003c0.037,0.173,0.074,0.24,0.134,0.51  c0.073,0.326,0.405,0.718,0.95,0.764c0.031-0.466-0.797-1.238-0.791-1.236c0.408,0.44,0.97,0.642,1.511,0.569  c-0.171-0.426-0.722-0.792-0.848-0.848c0.236-0.083,0.434-0.205,0.526-0.378c-0.507-0.113-0.758-0.06-0.963,0.141  c0.404-0.392,0.781-0.811,1.129-1.251c0.534-0.674,1.018-1.388,1.493-2.104c0.391-0.591,0.774-1.187,1.134-1.796  c0.529-0.893,1.003-1.814,1.442-2.752c0.073-0.161,0.146-0.323,0.219-0.485c0.404-0.428,0.683-1.047,0.713-1.682  c0.342-0.862,0.658-1.732,0.946-2.614c0.194-0.595,0.378-1.191,0.548-1.792c0.178-0.626,0.339-1.256,0.489-1.889  c0.16-0.679,0.308-1.361,0.44-2.046c0.165-0.844,0.305-1.692,0.433-2.542c0.166-1.116,0.305-2.235,0.432-3.356  c0.036-0.319,0.07-0.638,0.105-0.957c0.103-0.96,0.197-1.922,0.271-2.887c0.073-0.962,0.135-1.925,0.176-2.89  c0.041-0.943,0.051-1.887,0.046-2.831C32.127,2.272,32.127,2.161,32.125,2.05z"/><text x="0" y="65" fill="#000000" font-size="5px" font-weight="bold" font-family="'Helvetica Neue', Helvetica, Arial-Unicode, Arial, Sans-serif">Created by Sara Bz Z</text><text x="0" y="70" fill="#000000" font-size="5px" font-weight="bold" font-family="'Helvetica Neue', Helvetica, Arial-Unicode, Arial, Sans-serif">from the Noun Project</text></svg>