<svg xmlns:dc="http://purl.org/dc/elements/1.1/" xmlns:cc="http://creativecommons.org/ns#" xmlns:rdf="http://www.w3.org/1999/02/22-rdf-syntax-ns#" xmlns:svg="http://www.w3.org/2000/svg" xmlns="http://www.w3.org/2000/svg" xmlns:sodipodi="http://sodipodi.sourceforge.net/DTD/sodipodi-0.dtd" xmlns:inkscape="http://www.inkscape.org/namespaces/inkscape" viewBox="-30 0 74.999998 93.75018" version="1.1" x="0px" y="0px"><path style="" d="m 15.571744,0.11037793 c -5.6589964,0 -10.2625491,4.60355277 -10.2625491,10.26255107 v 4.691395 C 2.6112,13.828584 -0.2852793,13.183315 -3.2325898,13.183315 c -12.2781832,0 -22.2674752,10.951695 -22.2674752,24.413135 0,7.134934 2.367103,16.231933 6.029847,23.176321 2.195365,4.161942 4.772565,7.4789 7.65883,9.857971 3.4288322,2.826366 7.2067714,4.259024 11.2306555,4.259024 3.2165969,0 5.3496465,-0.557973 8.0807314,-2.21819 2.7310831,1.660217 4.8643471,2.21819 8.0809431,2.21819 4.023314,0 7.801825,-1.432658 11.230655,-4.259024 2.886266,-2.379071 5.463251,-5.696029 7.658615,-9.857971 3.662745,-6.944388 6.02985,-16.041387 6.02985,-23.176321 0,-13.46144 -9.989082,-24.413135 -22.267262,-24.413135 -2.94731,0 -5.844004,0.644697 -8.5419962,1.881009 v -4.691395 c 0,-3.2428439 2.6380992,-5.8809431 5.8809402,-5.8809431 h 4.687551 V 0.11037793 Z M -3.2325898,17.564922 c 3.34439294,0 6.6197004,1.060039 9.4728765,3.065418 L 7.4999989,21.516289 8.759712,20.63034 c 2.853174,-2.005379 6.128694,-3.065418 9.473088,-3.065418 9.862024,0 17.885224,8.986243 17.885223,20.031528 0,6.475418 -2.16799,14.770184 -5.523224,21.132063 -5.135829,9.735942 -10.999101,11.779645 -15.013857,11.779645 -2.482336,0 -3.983317,-0.31394 -6.8524671,-2.25713 l -1.228476,-0.83182 -1.2289044,0.83182 c -2.868579,1.94319 -4.3694903,2.25713 -6.851827,2.25713 -4.0147559,0 -9.8780295,-2.043703 -15.0138585,-11.779645 -3.355233,-6.361879 -5.523865,-14.656645 -5.523865,-21.132063 0,-11.045285 8.023841,-20.031528 17.8858662,-20.031528 z m 1.2333966,22.816886 v 7.308822 h 4.3816101 v -7.308822 z m 14.6167742,0 v 7.308822 h 4.381609 v -7.308822 z" stroke-width="0.14605334"/><text x="-30" y="90.000144" fill="#000000" font-size="5px" font-weight="bold" font-family="'Helvetica Neue', Helvetica, Arial-Unicode, Arial, Sans-serif">Created by jabbar</text><text x="-30" y="95.000144" fill="#000000" font-size="5px" font-weight="bold" font-family="'Helvetica Neue', Helvetica, Arial-Unicode, Arial, Sans-serif">from the Noun Project</text></svg>