<svg xmlns="http://www.w3.org/2000/svg" xmlns:xlink="http://www.w3.org/1999/xlink" version="1.1" x="0px" y="0px" viewBox="0 0 44.68 64.3875" enable-background="new 0 0 44.68 51.51" xml:space="preserve"><g><path d="M3.01,17.27c-0.54,0-0.99-0.44-1-0.98C2.01,15.74,2.45,15.28,3,15.27c1.58-0.03,3.16-0.23,4.69-0.61   c0.53-0.13,1.08,0.19,1.21,0.73c0.13,0.54-0.2,1.08-0.73,1.21c-1.68,0.41-3.41,0.64-5.14,0.67C3.03,17.27,3.02,17.27,3.01,17.27z"/><path d="M19.22,35.7c-0.13,0-0.26-0.03-0.39-0.08c-0.18-0.07-0.64-0.27-0.86-0.27c-0.3,0.02-0.61-0.07-0.82-0.28   c-0.15-0.15-0.74-0.31-1.21-0.44c-2.41-0.67-6.43-1.79-6.27-10.09c0.26-2.56,0.82-5.05,1.68-7.5c0.86-2.44,1.98-4.74,3.33-6.83   C21.74,1.04,28.71,0.08,29.48,0c0.3-0.02,0.59,0.07,0.8,0.28c0.55,0.54,5.39,5.64,5.17,17.13c-0.06,0.61-0.13,1.14-0.22,1.67   c-0.05,0.35-0.28,0.64-0.61,0.77c-2.85,1.18-5.68,3.02-8.4,5.48c-1.54,1.64-2.95,3.57-4.16,5.69c-0.71,1.25-1.36,2.61-1.91,4.03   c-0.1,0.25-0.29,0.45-0.54,0.56C19.49,35.67,19.36,35.7,19.22,35.7z M18.21,33.36c0.15,0.01,0.29,0.04,0.45,0.08   c0.5-1.19,1.07-2.33,1.68-3.4c1.28-2.25,2.79-4.31,4.5-6.13c2.78-2.52,5.62-4.41,8.51-5.67c0.04-0.31,0.08-0.63,0.12-0.94   C33.63,8,30.33,3.37,29.21,2.07c-1.7,0.31-7.17,1.87-12.89,9.3c-1.22,1.89-2.27,4.04-3.07,6.34c-0.81,2.3-1.34,4.64-1.57,6.95   c-0.13,6.67,2.61,7.43,4.81,8.04C17.14,32.88,17.74,33.05,18.21,33.36z"/><g><path d="M23.09,28.61c-0.15,0-0.3-0.03-0.44-0.1c-0.35-0.17-0.56-0.53-0.55-0.9c0-0.15,0.03-0.3,0.1-0.44    c0.03-0.06,0.07-0.12,0.11-0.18c0.34-0.43,0.97-0.51,1.4-0.17c0.25,0.2,0.38,0.49,0.38,0.79c0,0.19-0.05,0.38-0.17,0.55    C23.74,28.44,23.42,28.61,23.09,28.61z"/><path d="M21.2,31.54c-0.17,0-0.34-0.04-0.49-0.13c-0.32-0.18-0.51-0.52-0.51-0.87c0-0.17,0.04-0.34,0.13-0.49    c0.3-0.52,0.61-1.04,0.94-1.54c0.3-0.46,0.92-0.6,1.38-0.3c0.46,0.3,0.6,0.92,0.3,1.38c-0.31,0.48-0.6,0.96-0.88,1.45    C21.89,31.35,21.55,31.54,21.2,31.54z"/><path d="M11.71,46.17c-2.75,0-5.26-1.77-7.68-5.4c-1.25-2.25-2.2-4.62-2.89-7.12c-0.69-2.5-1.08-5.03-1.15-7.51    C0.58,14.59,5.76,9.83,6.35,9.33C6.58,9.14,6.88,9.05,7.17,9.1c0.79,0.14,3.67,0.82,7.34,3.73c0.37,0.29,0.48,0.81,0.27,1.23    c-0.61,1.21-1.13,2.43-1.55,3.64c-0.81,2.3-1.34,4.64-1.57,6.95c-0.13,6.67,2.61,7.43,4.81,8.04c0.66,0.18,1.25,0.35,1.73,0.66    c0.44,0.04,0.88,0.2,1.4,0.41c0.5,0.21,0.74,0.78,0.55,1.29c-0.38,0.96-0.65,1.76-0.87,2.53c-0.46,2.3-0.46,4.22,0.02,5.63    c0.09,0.27,0.07,0.57-0.08,0.82c-0.14,0.25-0.38,0.43-0.66,0.48l-0.3,0.06c-0.49,0.1-1.09,0.22-1.25,0.36    c-0.23,0.19-0.53,0.28-0.82,0.23c-0.29-0.04-0.76,0.16-1.25,0.33C14.07,45.8,12.99,46.17,11.71,46.17z M7.3,11.18    C6.08,12.41,2.47,16.8,2,26.16c0.07,2.25,0.44,4.62,1.08,6.96c0.64,2.35,1.54,4.57,2.67,6.61c1.97,2.96,3.94,4.44,5.97,4.44    c0.94,0,1.81-0.3,2.57-0.57c0.63-0.22,1.22-0.42,1.8-0.44c0.31-0.17,0.66-0.29,1.04-0.38c-0.31-1.57-0.24-3.43,0.22-5.67    c0.17-0.59,0.35-1.16,0.57-1.76c-0.26,0.01-0.55-0.09-0.75-0.29c-0.15-0.15-0.74-0.31-1.21-0.44c-2.41-0.67-6.43-1.79-6.27-10.09    c0.26-2.56,0.82-5.05,1.68-7.5c0.36-1.04,0.79-2.08,1.29-3.13C10.17,12.09,8.21,11.42,7.3,11.18z"/><path d="M20.09,33.7c-0.15,0-0.29-0.03-0.43-0.1c-0.5-0.24-0.71-0.83-0.47-1.33l0.9,0.43l-0.87-0.49l0.02-0.05    c0.01-0.03,0.03-0.06,0.03-0.06c0.24-0.5,0.84-0.71,1.34-0.47c0.36,0.17,0.56,0.53,0.56,0.9c0,0.15-0.03,0.29-0.1,0.43    c0,0-0.08,0.16-0.08,0.17l0,0.01C20.81,33.49,20.46,33.7,20.09,33.7z"/></g><path d="M29.21,51.51c-2.02,0-3.46-0.95-4.51-1.65c-0.41-0.27-0.92-0.61-1.13-0.62l-0.47-0.04l-0.27-0.38   c-0.12-0.17-0.67-0.44-1.11-0.65c-2.25-1.09-6.01-2.91-4.37-11.05c0.71-2.47,1.71-4.82,2.99-7.08c1.28-2.25,2.79-4.31,4.5-6.13   c4.98-4.5,9.38-6.26,12.21-6.95l1.75-0.42l-3.38,10.34l8.18-6.62l0.38,1.52c0.66,2.64,1.19,7.02,0,12.94   c-0.71,2.47-1.71,4.82-2.99,7.08c-1.28,2.25-2.79,4.31-4.5,6.13C33.79,50.36,31.43,51.51,29.21,51.51z M24.16,47.33   c0.55,0.15,1.06,0.49,1.63,0.87c0.93,0.62,1.99,1.32,3.41,1.32c1.68,0,3.66-1.01,5.88-3.02c1.54-1.64,2.95-3.57,4.16-5.69   c1.21-2.12,2.14-4.32,2.79-6.56c0.89-4.43,0.74-7.95,0.33-10.42L31.4,32.7l4.33-13.25c-2.52,0.88-5.84,2.59-9.51,5.9   c-1.54,1.64-2.95,3.57-4.16,5.69c-1.21,2.12-2.14,4.32-2.79,6.56c-1.32,6.54,1.24,7.78,3.3,8.77   C23.2,46.67,23.75,46.93,24.16,47.33z"/><path d="M31.4,32.7l4.51-13.79l0.54-0.13c1.42-0.35,2.49-0.42,3.14-0.42c0.21,0,0.4,0.01,0.56,0.02l0.47,0.04l0.27,0.39   c0.32,0.45,1.13,1.76,1.73,4.06l0.17,0.62L31.4,32.7z M37.46,20.59l-2.06,6.29l5.11-4.14c-0.35-1.15-0.74-1.94-1-2.39   C39.06,20.36,38.36,20.41,37.46,20.59z"/><path d="M22.11,40.41c-0.02,0-0.03,0-0.05,0c-0.55-0.03-0.98-0.5-0.95-1.05c0.45-9.05,7.74-13.54,8.05-13.72   c0.47-0.29,1.09-0.13,1.37,0.34c0.29,0.47,0.13,1.09-0.34,1.37c-0.07,0.04-6.69,4.15-7.09,12.11   C23.08,39.99,22.64,40.41,22.11,40.41z"/><path d="M17.86,35.36c-0.03,0-0.07,0-0.1,0c-0.55-0.06-0.95-0.55-0.9-1.09c0.74-7.34,2.31-14.22,4.66-20.44   c0.2-0.52,0.77-0.78,1.29-0.58c0.52,0.2,0.78,0.77,0.58,1.29c-2.29,6.05-3.82,12.76-4.54,19.93C18.8,34.97,18.37,35.36,17.86,35.36   z"/><path d="M25.53,8.31c-0.16,0-0.32-0.04-0.47-0.12c-0.49-0.26-0.68-0.86-0.42-1.35c1.46-2.77,2.74-4.77,4.16-6.48   c0.35-0.43,0.98-0.48,1.41-0.13c0.43,0.35,0.48,0.98,0.13,1.41c-1.33,1.6-2.54,3.49-3.93,6.13C26.24,8.11,25.89,8.31,25.53,8.31z"/></g><text x="0" y="66.50999999999999" fill="#000000" font-size="5px" font-weight="bold" font-family="'Helvetica Neue', Helvetica, Arial-Unicode, Arial, Sans-serif">Created by Ben Davis</text><text x="0" y="71.50999999999999" fill="#000000" font-size="5px" font-weight="bold" font-family="'Helvetica Neue', Helvetica, Arial-Unicode, Arial, Sans-serif">from the Noun Project</text></svg>