<svg xmlns="http://www.w3.org/2000/svg" xmlns:xlink="http://www.w3.org/1999/xlink" viewBox="0 0 24 30" version="1.1" x="0px" y="0px"><title>9 -Flower- (Solid)</title><desc>Created with Sketch.</desc><g stroke="none" stroke-width="1" fill="none" fill-rule="evenodd"><g fill="#000000"><path d="M12.4758,14.7449 C12.3398,14.7689 12.2008,14.7839 12.0588,14.7869 C12.0358,14.7879 12.0118,14.7919 11.9888,14.7919 C11.8248,14.7909 11.6668,14.7709 11.5108,14.7439 C11.4548,14.7339 11.3988,14.7199 11.3438,14.7069 C11.0698,14.6409 10.8158,14.5319 10.5798,14.3919 C10.3788,14.2719 10.1888,14.1359 10.0248,13.9719 C10.0168,13.9639 10.0108,13.9539 10.0028,13.9459 C9.8488,13.7879 9.7188,13.6059 9.6048,13.4139 C9.4748,13.1949 9.3748,12.9569 9.3078,12.7039 C9.2468,12.4719 9.2068,12.2359 9.2068,11.9999 C9.2068,11.8319 9.2278,11.6689 9.2568,11.5089 C9.2668,11.4549 9.2798,11.3999 9.2928,11.3459 C9.3588,11.0709 9.4688,10.8139 9.6098,10.5769 C9.7298,10.3779 9.8638,10.1879 10.0268,10.0249 C10.0368,10.0159 10.0478,10.0089 10.0578,9.9999 C10.2148,9.8469 10.3938,9.7189 10.5838,9.6069 C10.8178,9.4669 11.0708,9.3599 11.3418,9.2939 C11.4018,9.2789 11.4608,9.2659 11.5198,9.2559 C11.6648,9.2299 11.8128,9.2129 11.9638,9.2109 C11.9788,9.2109 11.9928,9.2079 12.0068,9.2079 C12.1728,9.2079 12.3338,9.2289 12.4928,9.2569 C12.5468,9.2669 12.6008,9.2799 12.6548,9.2929 C12.9288,9.3589 13.1838,9.4679 13.4198,9.6089 C13.6218,9.7279 13.8118,9.8639 13.9758,10.0279 C13.9838,10.0359 13.9888,10.0459 13.9968,10.0539 C14.1518,10.2129 14.2808,10.3939 14.3948,10.5859 C14.5248,10.8059 14.6258,11.0429 14.6918,11.2959 C14.7538,11.5279 14.7928,11.7649 14.7928,11.9999 C14.7928,12.1679 14.7718,12.3309 14.7438,12.4909 C14.7338,12.5459 14.7208,12.5999 14.7078,12.6539 C14.6408,12.9289 14.5318,13.1859 14.3898,13.4229 C14.2708,13.6229 14.1358,13.8119 13.9728,13.9749 C13.9638,13.9839 13.9518,13.9909 13.9418,13.9999 C13.7858,14.1529 13.6058,14.2809 13.4168,14.3939 C13.1828,14.5319 12.9308,14.6399 12.6598,14.7059 C12.5988,14.7209 12.5368,14.7339 12.4758,14.7449 M23.7068,11.2929 C22.1898,9.7759 20.5218,9.1659 18.9528,9.1119 C20.1868,7.7209 20.7788,5.8989 20.7788,4.2219 C20.7788,3.6699 20.3308,3.2219 19.7788,3.2219 C17.6418,3.2219 16.0348,3.9639 14.8888,5.0299 C14.7728,3.1779 13.8928,1.4779 12.7068,0.2929 C12.3168,-0.0981 11.6838,-0.0981 11.2928,0.2929 C9.7758,1.8099 9.1648,3.4779 9.1118,5.0469 C7.7208,3.8129 5.8988,3.2219 4.2218,3.2219 C3.6688,3.2219 3.2218,3.6699 3.2218,4.2219 C3.2218,6.3579 3.9638,7.9639 5.0278,9.1099 C3.1758,9.2269 1.4778,10.1079 0.2928,11.2929 C0.1058,11.4809 -0.0002,11.7349 -0.0002,11.9999 C-0.0002,12.2649 0.1058,12.5199 0.2928,12.7069 C1.8108,14.2239 3.4798,14.8339 5.0478,14.8869 C3.8128,16.2779 3.2218,18.0999 3.2218,19.7779 C3.2218,20.3309 3.6688,20.7779 4.2218,20.7779 C6.3578,20.7779 7.9648,20.0359 9.1108,18.9699 C9.2268,20.8219 10.1078,22.5219 11.2928,23.7069 C11.4888,23.9019 11.7438,23.9999 11.9998,23.9999 C12.2558,23.9999 12.5118,23.9019 12.7068,23.7069 C14.2238,22.1899 14.8348,20.5219 14.8878,18.9529 C16.2788,20.1869 18.1008,20.7779 19.7788,20.7779 C20.3308,20.7779 20.7788,20.3309 20.7788,19.7779 C20.7788,17.6399 20.0348,16.0319 18.9678,14.8849 C20.8208,14.7699 22.5208,13.8929 23.7068,12.7069 C24.0978,12.3169 24.0978,11.6839 23.7068,11.2929"/></g></g><text x="0" y="39" fill="#000000" font-size="5px" font-weight="bold" font-family="'Helvetica Neue', Helvetica, Arial-Unicode, Arial, Sans-serif">Created by Ben Davis</text><text x="0" y="44" fill="#000000" font-size="5px" font-weight="bold" font-family="'Helvetica Neue', Helvetica, Arial-Unicode, Arial, Sans-serif">from the Noun Project</text></svg>