<svg xmlns="http://www.w3.org/2000/svg" xmlns:xlink="http://www.w3.org/1999/xlink" version="1.1" x="0px" y="0px" viewBox="-405.722 0 1026.103 1125.39" enable-background="new -405.722 0 1026.103 900.312" xml:space="preserve"><path d="M410.179,660.292c-26.784-4.877-55.093-2.453-81.866,7.013c-40.366,14.272-70.826,41.941-83.503,74.147l-33.898-1.896  c-0.25-0.014-0.499-0.023-0.749-0.031c-21.835-0.676-54.578-20.827-71.576-53.382c-13.365-25.597-21.828-67.562,13.688-122.157  l273.351-410.109c0.148-0.224,0.295-0.45,0.438-0.677c25.22-40.135,36.165-69.593,25.998-119.218  c-3.326-16.231-19.182-26.696-35.411-23.368c-16.23,3.326-26.693,19.18-23.368,35.411c5.831,28.457,2.506,42.523-17.808,74.912  L102.26,530.841c-0.058,0.087-0.115,0.174-0.172,0.261C47.922,614.232,68.383,681.322,85.4,713.914  c25.481,48.802,75.808,83.933,122.506,85.568l124.779,6.98c0.571,0.032,1.137,0.048,1.703,0.048c1.175,0,2.334-0.076,3.477-0.21  c5.157,0.527,10.449,1.916,13.419,5.146c3.99,4.337,5.807,13.708,4.856,25.064c-1.38,16.513,10.886,31.016,27.396,32.396  c0.852,0.07,1.694,0.105,2.532,0.105c15.437,0,28.553-11.843,29.862-27.503c2.426-29.033-4.659-53.476-20.49-70.685  c-10.411-11.317-29.86-24.809-63.399-24.809c-1.011,0-2.008,0.053-2.991,0.149l-15.78-0.883c8.893-8.801,21.139-16.494,35.043-21.41  c13.706-4.847,61.318-17.629,98.498,21.36c11.434,11.991,30.424,12.442,42.415,1.008c11.991-11.436,12.441-30.424,1.007-42.414  C468.373,680.904,440.692,665.849,410.179,660.292z"/><path d="M575.721,683.238c-0.145,0.329-0.28,0.67-0.43,0.99C575.51,684.254,575.653,683.901,575.721,683.238z"/><path d="M568.184,589.856c-9.062-21.344-24.55-39.079-43.59-52.136c-9.486-6.524-19.555-11.851-29.721-16.359  c-20.389-8.986-41.09-14.916-61.322-20.054l-0.372-0.101c-2.211-0.547-4.521-0.851-6.896-0.882  c-16.689-0.215-30.395,13.142-30.608,29.832c-0.215,16.688,13.141,30.395,29.832,30.608c19.118,0.246,37.753,1.175,55.257,4.34  c17.479,3.182,32.712,10.305,47.392,18.664c34.927,19.893,48.51,90.329,47.566,99.469  C585.948,659.857,581.777,614.652,568.184,589.856z"/><circle cx="-21.687" cy="718.504" r="30.003"/><circle cx="-151.698" cy="695.497" r="30.003"/><circle cx="-55.686" cy="585.482" r="30.003"/><circle cx="-186.691" cy="813.513" r="30.003"/><circle cx="64.335" cy="807.512" r="30.003"/><circle cx="171.336" cy="839.512" r="30.003"/><circle cx="-335.104" cy="419.489" r="30.003"/><circle cx="-59.684" cy="398.464" r="30.003"/><circle cx="-210.701" cy="530.48" r="30.003"/><circle cx="-315.713" cy="692.498" r="30.003"/><circle cx="-195.7" cy="278.455" r="30.003"/><circle cx="-46.776" cy="835.517" r="30.003"/><text x="-405.722" y="915.312" fill="#000000" font-size="5px" font-weight="bold" font-family="'Helvetica Neue', Helvetica, Arial-Unicode, Arial, Sans-serif">Created by corpus delicti</text><text x="-405.722" y="920.312" fill="#000000" font-size="5px" font-weight="bold" font-family="'Helvetica Neue', Helvetica, Arial-Unicode, Arial, Sans-serif">from the Noun Project</text></svg>