<svg xmlns="http://www.w3.org/2000/svg" xmlns:xlink="http://www.w3.org/1999/xlink" version="1.1" x="0px" y="0px" viewBox="0 0 52 65" enable-background="new 0 0 52 52" xml:space="preserve"><path d="M41.0289078,22.0884399c-2.0944214-0.9450684-4.5197144-0.5887451-6.6639404,0.8615723  c-0.2631836-7.0172119-5.250061-15.482666-7.4909668-18.9484863h10.6239014c0.5527344,0,1-0.4472656,1-1s-0.4472656-1-1-1h-23  c-0.5527344,0-1,0.4472656-1,1s0.4472656,1,1,1h2.79181c-2.130311,1.0158691-3.7653208,2.979126-4.2808237,5.3869629  c-0.1099854,0.5400391,0.2300415,1.0799561,0.7700195,1.1899414c0.5400391,0.1201172,1.0800171,0.1700439,1.6300049,0.1700439  c1.4293833,0,2.7875376-0.4047852,3.9589853-1.1071777c-1.4163208,3.8065186-2.4227295,9.3516846-1.8448486,17.2330322  c-2.1193247-1.3891602-4.4887705-1.7139893-6.5541391-0.7858887c-4.3900142,1.9699707-6.2399898,8.6101074-4.2199702,15.1300049  c1.6399531,5.25,5.3599849,8.7800293,9.2399902,8.7800293c0.8699961,0,1.7199717-0.1800537,2.5199594-0.5400391  c0.0700073-0.0299072,0.1500244-0.0699463,0.2200317-0.1099854c0.0800171,0.0400391,0.1599731,0.0800781,0.2399902,0.1099854  c0.789978,0.3599854,1.6400146,0.5400391,2.5100098,0.5400391c2.7600098,0,5.5700073-1.8699951,7.5200195-5  c0.7099609-1.1500244,1.289978-2.4200439,1.7099609-3.7800293c2.0400391-6.5198975,0.1900024-13.1600342-4.2099609-15.1300049  c-1.3500366-0.6099854-2.8500366-0.6999512-4.2800293-0.2800293c-0.916626,0.2556152-1.8162231,0.7032471-2.6608887,1.3212891  C18.4015884,12.46698,22.9552383,6.3256226,24.79673,4.487854c1.8671265,2.8303223,7.3391113,11.7050781,7.5604858,18.5778809  c-2.1954346-1.5609131-4.7033081-1.940918-6.8582764-0.9772949c-0.7819824,0.3470459-1.4894409,0.8588867-2.1152954,1.505127  c0.2052612-0.0155029,0.4093018-0.0441895,0.6152344-0.0441895c1.1542969,0,2.2724609,0.2412109,3.3242188,0.7167969  c5.390625,2.4130859,7.6699219,9.9589844,5.2949219,17.5498047c-0.454834,1.4713135-1.0894775,2.8760986-1.8817749,4.171875  c0.7902832-0.0266113,1.5665894-0.1967773,2.3026733-0.5294189c0.0700073-0.0299072,0.1500244-0.0699463,0.2299805-0.1099854  c0.0700073,0.0400391,0.1500244,0.0800781,0.2300415,0.1099854c0.7999878,0.3599854,1.6399536,0.5400391,2.5099487,0.5400391  c3.8900146,0,7.6000366-3.5300293,9.2300415-8.7800293C47.2789078,30.6985474,45.4289322,24.0584106,41.0289078,22.0884399z"/><text x="0" y="67" fill="#000000" font-size="5px" font-weight="bold" font-family="'Helvetica Neue', Helvetica, Arial-Unicode, Arial, Sans-serif">Created by DinosoftLab</text><text x="0" y="72" fill="#000000" font-size="5px" font-weight="bold" font-family="'Helvetica Neue', Helvetica, Arial-Unicode, Arial, Sans-serif">from the Noun Project</text></svg>