<svg xmlns="http://www.w3.org/2000/svg" xmlns:xlink="http://www.w3.org/1999/xlink" version="1.1" x="0px" y="0px" viewBox="0 0 24 30" style="enable-background:new 0 0 24 24;" xml:space="preserve"><g><path d="M0.331,6.79c0.655,1.671,1.979,5.02,2.546,6.256c0.134,0.292,0.28,0.559,0.435,0.807l4.229,0.266   C5.052,11.411,2.231,8.61,0.331,6.79z"/><path d="M7.792,13.772l-0.11-5.207C6.991,8.114,6.191,7.71,5.281,7.36L3.902,6.894C2.368,6.442,0.98,6.235,0.26,6.149   C1.408,7.243,4.767,10.482,7.792,13.772z"/><path d="M11.349,3.145c0.065-0.095,0.194-0.119,0.289-0.054c0.095,0.065,0.119,0.194,0.055,0.289   C11.68,3.397,11.08,4.304,10.77,5.841l2.175-1.494C12.851,3.401,12.525,1.155,12.4,0.3c-0.642,0.48-2.253,1.794-3.048,3.398   l1.026,1.9C10.708,4.103,11.3,3.216,11.349,3.145z"/><path d="M21.182,5.336c-0.041,0.054-0.103,0.082-0.166,0.082c-0.044,0-0.088-0.014-0.125-0.042c-0.091-0.069-0.11-0.2-0.04-0.291   c1.186-1.567,2.212-2.886,2.742-3.563c-1.434,0.405-5.165,1.62-7.803,3.892l0.315,6.244c1.203-1.792,2.692-3.834,3.989-5.566   c0.069-0.091,0.199-0.111,0.291-0.042c0.092,0.069,0.111,0.199,0.042,0.291c-1.666,2.227-3.021,4.12-4.038,5.641l5.153-1.147   c0.134-0.313,0.254-0.647,0.356-1.008c0.445-1.576,1.424-5.934,1.843-7.818C23.177,2.73,22.244,3.932,21.182,5.336z M20.835,5.796   L20.764,5.89c-0.041,0.054-0.103,0.082-0.166,0.082c-0.044,0-0.088-0.014-0.125-0.042c-0.091-0.069-0.109-0.2-0.04-0.291   l0.07-0.093c0.069-0.091,0.199-0.11,0.291-0.041C20.885,5.574,20.904,5.704,20.835,5.796z"/><path d="M14.596,14.849l-0.12-0.062l-0.213-0.115c0.339-0.663,0.842-1.496,1.455-2.431l-0.326-6.468   c-0.443,0.42-0.849,0.871-1.195,1.359c-2.445,3.446-0.678,6.723-0.034,7.705c-0.292,0.593-0.958,2.102-1.334,4.188   c-0.079-2.332-0.426-5.373-1.509-8.089c-0.402-1.008-0.616-1.949-0.711-2.811c0.692-0.286,2.342-1.189,2.341-3.291l-2.295,1.576   c-0.064,0.468-0.089,0.988-0.073,1.543h-0.413c-0.02-0.617,0.016-1.188,0.091-1.701L9.141,4.181   C9.089,4.318,9.043,4.457,9.007,4.598c-0.461,1.781,0.598,2.944,1.162,3.417c0.093,0.935,0.323,1.964,0.766,3.075   c1.151,2.885,1.453,6.155,1.494,8.51c-0.507-0.894-1.32-1.993-2.301-3.183c0.384-0.805,1.631-3.977-1.017-6.699   c-0.295-0.304-0.634-0.59-1.006-0.863l0.113,5.381c0.668,0.735,1.31,1.466,1.903,2.172l-0.378,0.186   c-0.551-0.65-1.151-1.327-1.775-2.015l-4.332-0.272c1.922,2.562,4.972,2.444,6.106,2.294c1.709,2.052,2.889,3.78,2.838,4.586   c-0.001,0.015,0.004,0.028,0.006,0.042c-0.032,0.726-0.023,1.488,0.058,2.284c0.011,0.107,0.101,0.187,0.207,0.187   c0.007,0,0.014,0,0.021-0.001c0.114-0.011,0.197-0.113,0.186-0.228c-0.418-4.124,0.967-7.398,1.457-8.406   c1.149,0.016,4.946-0.22,6.761-3.755l-5.26,1.171C15.379,13.453,14.909,14.239,14.596,14.849z"/></g><text x="0" y="39" fill="#000000" font-size="5px" font-weight="bold" font-family="'Helvetica Neue', Helvetica, Arial-Unicode, Arial, Sans-serif">Created by Atif Arshad</text><text x="0" y="44" fill="#000000" font-size="5px" font-weight="bold" font-family="'Helvetica Neue', Helvetica, Arial-Unicode, Arial, Sans-serif">from the Noun Project</text></svg>